<?xml version="1.0" encoding="utf-8"?>
<!-- Generator: Adobe Illustrator 18.1.1, SVG Export Plug-In . SVG Version: 6.00 Build 0)  -->
<!DOCTYPE svg PUBLIC "-//W3C//DTD SVG 1.1//EN" "http://www.w3.org/Graphics/SVG/1.1/DTD/svg11.dtd">
<svg version="1.1" xmlns="http://www.w3.org/2000/svg" xmlns:xlink="http://www.w3.org/1999/xlink" x="0px" y="0px"
	 viewBox="0 0 28 28" enable-background="new 0 0 28 28" xml:space="preserve">
<g id="Layer_2" display="none">
	<rect x="0" y="0" display="inline" fill-rule="evenodd" clip-rule="evenodd" fill="#6D6E71" width="28" height="28"/>
</g>
<g id="Mail">
	<rect x="1.8" y="1.8" fill="none" stroke="#FFFFFF" stroke-width="3" stroke-miterlimit="10" width="24.4" height="24.4"/>
	<polyline fill="none" stroke="#FFFFFF" stroke-width="3" stroke-miterlimit="10" points="26.1,5.8 13.9,18 1.8,5.8 	"/>
</g>
<g id="Github" display="none">
	<path display="inline" fill-rule="evenodd" clip-rule="evenodd" fill="#FFFFFF" d="M14,1.3c-7.2,0-13,5.8-13,13
		c0,5.7,3.7,10.6,8.9,12.3c0.7,0.1,0.9-0.3,0.9-0.6c0-0.3,0-1.1,0-2.2c-3.6,0.8-4.4-1.7-4.4-1.7c-0.6-1.5-1.4-1.9-1.4-1.9
		C3.8,19.4,5,19.4,5,19.4c1.3,0.1,2,1.3,2,1.3c1.2,2,3,1.4,3.8,1.1c0.1-0.8,0.5-1.4,0.8-1.7c-2.9-0.3-5.9-1.4-5.9-6.4
		c0-1.4,0.5-2.6,1.3-3.5C6.9,9.8,6.5,8.5,7.2,6.7c0,0,1.1-0.3,3.6,1.3c1-0.3,2.1-0.4,3.3-0.4c1.1,0,2.2,0.1,3.3,0.4
		c2.5-1.7,3.6-1.3,3.6-1.3c0.7,1.8,0.3,3.1,0.1,3.4c0.8,0.9,1.3,2.1,1.3,3.5c0,5-3,6.1-5.9,6.4c0.5,0.4,0.9,1.2,0.9,2.4
		c0,1.7,0,3.1,0,3.6c0,0.3,0.2,0.8,0.9,0.6c5.2-1.7,8.9-6.6,8.9-12.3C27,7.1,21.2,1.3,14,1.3z"/>
</g>
<g id="Twitter" display="none">
	<path display="inline" fill="#FFFFFF" d="M27.1,6c-1,0.4-2,0.7-3.1,0.8c1.1-0.7,2-1.7,2.4-2.9c-1,0.6-2.2,1-3.4,1.3
		c-1-1-2.4-1.7-3.9-1.7c-3,0-5.4,2.4-5.4,5.3c0,0.4,0,0.8,0.1,1.2C9.3,9.8,5.4,7.7,2.7,4.5C2.3,5.3,2,6.2,2,7.2C2,9,3,10.6,4.4,11.6
		c-0.9,0-1.7-0.3-2.4-0.7c0,0,0,0,0,0.1c0,2.6,1.9,4.7,4.3,5.2c-0.5,0.1-0.9,0.2-1.4,0.2c-0.3,0-0.7,0-1-0.1c0.7,2.1,2.7,3.6,5,3.7
		c-1.8,1.4-4.2,2.3-6.7,2.3c-0.4,0-0.9,0-1.3-0.1c2.4,1.5,5.2,2.4,8.2,2.4c9.9,0,15.3-8.1,15.3-15c0-0.2,0-0.5,0-0.7
		C25.5,8,26.4,7.1,27.1,6z"/>
</g>
</svg>
