<?xml version="1.0" encoding="utf-8"?>
<!-- Generator: Adobe Illustrator 18.1.1, SVG Export Plug-In . SVG Version: 6.00 Build 0)  -->
<!DOCTYPE svg PUBLIC "-//W3C//DTD SVG 1.1//EN" "http://www.w3.org/Graphics/SVG/1.1/DTD/svg11.dtd">
<svg version="1.1" xmlns="http://www.w3.org/2000/svg" xmlns:xlink="http://www.w3.org/1999/xlink" x="0px" y="0px"
	 viewBox="0 0 28 28" enable-background="new 0 0 28 28" xml:space="preserve">
<g id="Layer_1">
	<path fill-rule="evenodd" clip-rule="evenodd" fill="#FFFFFF" d="M13.999,1C6.819,1,0.996,6.822,0.996,14.004
		c0,5.745,3.726,10.619,8.893,12.338c0.65,0.119,0.888-0.282,0.888-0.627c0-0.309-0.011-1.126-0.018-2.212
		c-3.617,0.786-4.38-1.743-4.38-1.743c-0.591-1.502-1.444-1.902-1.444-1.902c-1.181-0.807,0.089-0.79,0.089-0.79
		c1.305,0.092,1.992,1.34,1.992,1.34c1.16,1.987,3.043,1.413,3.784,1.08c0.118-0.84,0.454-1.413,0.826-1.738
		c-2.888-0.328-5.923-1.444-5.923-6.427c0-1.42,0.507-2.58,1.338-3.489c-0.134-0.329-0.58-1.651,0.127-3.441
		c0,0,1.092-0.35,3.576,1.333c1.037-0.288,2.15-0.433,3.255-0.438c1.104,0.005,2.217,0.149,3.255,0.438
		c2.483-1.683,3.572-1.333,3.572-1.333c0.709,1.79,0.263,3.112,0.129,3.441c0.833,0.909,1.337,2.07,1.337,3.489
		c0,4.995-3.04,6.095-5.937,6.417c0.467,0.401,0.883,1.195,0.883,2.408c0,1.738-0.016,3.141-0.016,3.567
		c0,0.348,0.234,0.752,0.894,0.625c5.163-1.723,8.885-6.594,8.885-12.337C27.004,6.822,21.181,1,13.999,1z"/>
</g>
<g id="Layer_2" display="none">
	<path display="inline" fill="#FFFFFF" d="M27.129,5.358c-0.962,0.421-1.999,0.705-3.083,0.833c1.108-0.654,1.961-1.69,2.359-2.925
		c-1.037,0.607-2.186,1.046-3.41,1.282c-0.98-1.028-2.375-1.669-3.919-1.669c-2.965,0-5.37,2.365-5.37,5.286
		c0,0.414,0.048,0.818,0.139,1.205C9.382,9.148,5.426,7.045,2.777,3.846C2.313,4.627,2.049,5.535,2.049,6.505
		c0,1.835,0.948,3.451,2.39,4.4c-0.882-0.028-1.71-0.266-2.433-0.661c-0.003,0.022-0.003,0.044-0.003,0.066
		c0,2.561,1.853,4.698,4.309,5.183c-0.45,0.121-0.925,0.187-1.415,0.187c-0.346,0-0.682-0.033-1.011-0.095
		c0.683,2.102,2.666,3.628,5.016,3.672c-1.837,1.419-4.153,2.262-6.669,2.262c-0.433,0-0.86-0.024-1.28-0.073
		c2.377,1.499,5.2,2.376,8.231,2.376c9.877,0,15.281-8.055,15.281-15.041c0-0.229-0.007-0.456-0.018-0.683
		C25.499,7.35,26.41,6.417,27.129,5.358z"/>
</g>
</svg>
